<?xml version="1.0" encoding="utf-8"?>
<!-- Generator: Adobe Illustrator 16.0.0, SVG Export Plug-In . SVG Version: 6.00 Build 0)  -->
<!DOCTYPE svg PUBLIC "-//W3C//DTD SVG 1.0//EN" "http://www.w3.org/TR/2001/REC-SVG-20010904/DTD/svg10.dtd">
<svg version="1.0" id="Layer_1" xmlns="http://www.w3.org/2000/svg" xmlns:xlink="http://www.w3.org/1999/xlink" x="0px" y="0px"
	 width="1700.791px" height="850.391px" viewBox="0 0 1700.791 850.391" enable-background="new 0 0 1700.791 850.391"
	 xml:space="preserve">
<g id="Engrave">
	<path fill="#0000FF" d="M47.848,187.89l2.496,4.722c-0.589,0.411-1.053,0.942-1.342,1.61c-1.422,3.281,0.229,7.49,5.848,10.707
		c4.9,2.808,10.809,1.877,12.139-1.213c1.613-3.75-1.201-8.563-5.789-10.801c-0.886-0.435-1.895-0.783-2.947-1.035l-2.305-3.99
		h8.643l12.711,21.76h2.828c-0.445-15.358-13.039-27.676-28.508-27.676c-4.873,0-9.459,1.224-13.472,3.377l1.337,2.539H47.848z"/>
	<path fill="#0000FF" d="M33.934,225.066l2.84-4.521c0.648,0.303,1.342,0.438,2.063,0.354c3.555-0.407,6.374-3.938,6.351-10.416
		c-0.021-5.646-3.777-10.301-7.12-9.905c-4.054,0.479-6.813,5.321-6.458,10.414c0.065,0.981,0.27,2.032,0.578,3.069l-2.306,3.992
		l-4.319-7.486l12.49-21.889l-1.414-2.449c-13.081,8.068-17.451,25.131-9.718,38.527c2.438,4.219,5.789,7.58,9.661,9.979
		l1.531-2.428L33.934,225.066z"/>
	<path fill="#0000FF" d="M73.086,218.527l-5.336-0.196c-0.062-0.717-0.293-1.383-0.727-1.969c-2.131-2.871-6.604-3.548-12.195-0.291
		c-4.883,2.846-7.03,8.422-5.019,11.118c2.438,3.273,8.017,3.242,12.25,0.388c0.812-0.552,1.626-1.246,2.368-2.033h4.605
		l-4.32,7.481l-25.198,0.13l-1.414,2.448c13.524,7.293,30.486,2.547,38.222-10.85c2.438-4.223,3.672-8.807,3.812-13.357
		l-2.864-0.112L73.086,218.527z"/>
	<path fill="#0000FF" d="M76.929,173.04v0.858l-4.947,1.72l-0.166-0.111v-1.463h-3.401v2.104h8.517v0.822h-9.242v-3.094
		c0-0.193,0.061-0.354,0.184-0.476s0.279-0.184,0.475-0.184h3.507c0.444,0,0.667,0.299,0.667,0.898c0,0.059-0.002,0.146-0.008,0.26
		c-0.008,0.114-0.012,0.195-0.012,0.248C73.973,174.095,75.449,173.564,76.929,173.04z"/>
	<path fill="#0000FF" d="M67.688,166.284l9.266,1.258v0.668l-6.969,1.004c-0.121,0.004-0.303,0.012-0.543,0.021
		c0.126,0,0.307,0.011,0.543,0.023l6.969,1.004v0.668l-9.266,1.258v-0.813l6.667-0.785c0.148-0.004,0.37-0.014,0.661-0.023
		c-0.148,0.005-0.37-0.004-0.661-0.022l-6.667-0.957v-0.703l6.667-0.951c0.148-0.008,0.37-0.016,0.661-0.022
		c-0.148,0-0.37-0.011-0.661-0.027l-6.667-0.785V166.284z"/>
	<path fill="#0000FF" d="M68.414,162.002v1.43h8.517v0.822h-8.517v1.438h-0.726v-3.688L68.414,162.002L68.414,162.002z"/>
	<path fill="#0000FF" d="M76.929,157.172v0.818h-4.44v2.229h4.44v0.82h-9.241v-0.82h4.062v-2.229h-4.062v-0.818H76.929z"/>
	<path fill="#0000FF" d="M76.929,149.601v0.814l-2.058,0.324v1.836l2.058,0.323v0.793h-0.022l-9.242-1.646v-0.811L76.929,149.601z
		 M74.147,150.847l-5.007,0.81l5.007,0.815V150.847z"/>
	<path fill="#0000FF" d="M76.929,145.34v0.771H76.77c0.043,0.312,0.085,0.622,0.124,0.936c0.047,0.385,0.069,0.693,0.069,0.926
		c0,0.431-0.213,0.646-0.639,0.646H74.23c-0.441,0-0.662-0.224-0.662-0.668v-1.849h-1.729v1.689h0.979v0.762h-0.969
		c-0.443,0-0.667-0.221-0.667-0.662V146c0-0.441,0.224-0.662,0.667-0.662L76.929,145.34L76.929,145.34z M76.215,146.101h-2.03v1.754
		h2.065L76.215,146.101z"/>
	<path fill="#0000FF" d="M76.262,140.864c0.443,0,0.667,0.223,0.667,0.659v1.867c0,0.441-0.224,0.66-0.667,0.66h-4.411
		c-0.444,0-0.667-0.219-0.667-0.66v-1.867c0-0.438,0.223-0.659,0.667-0.659h1.146v0.771h-1.121v1.629h4.363v-1.629h-1.281v-0.771
		H76.262z"/>
	<path fill="#0000FF" d="M76.929,136.29v0.783h-5.042l0.048,1.729h4.995v0.783h-9.241v-0.783h3.655
		c-0.039-0.312-0.079-0.623-0.118-0.936c-0.053-0.396-0.077-0.701-0.077-0.929c0-0.436,0.215-0.651,0.645-0.651L76.929,136.29
		L76.929,136.29z"/>
	<path fill="#0000FF" d="M76.262,131.806c0.443,0,0.667,0.219,0.667,0.66v1.891c0,0.441-0.224,0.66-0.667,0.66h-4.411
		c-0.444,0-0.667-0.219-0.667-0.66v-1.891c0-0.438,0.223-0.66,0.667-0.66h2.065l0.277,0.265v2.188h2.078v-1.688h-1.051v-0.763
		L76.262,131.806L76.262,131.806z M73.568,132.566h-1.729v1.689h1.729V132.566z"/>
	<path fill="#0000FF" d="M76.929,127.207v0.783h-5.042l0.048,1.729h4.995v0.785h-5.745v-0.785h0.16
		c-0.039-0.307-0.081-0.617-0.124-0.928c-0.049-0.377-0.071-0.688-0.071-0.935c0-0.438,0.216-0.653,0.646-0.653h5.136
		L76.929,127.207L76.929,127.207z"/>
	<path fill="#0000FF" d="M75.89,125.01l1.692,0.521v0.565l-1.692-0.17V125.01z"/>
	<path fill="#0000FF" d="M76.929,116.894v0.775h-5.853c-0.084,0-0.325-0.027-0.728-0.084l5.709,1.512v0.166l-5.709,1.512
		c0.403-0.055,0.646-0.082,0.728-0.082h5.853v0.773h-9.241v-0.762l6.012-1.5c0.031-0.01,0.121-0.019,0.266-0.023
		c-0.059,0-0.146-0.008-0.266-0.024l-6.012-1.498v-0.765H76.929L76.929,116.894z"/>
	<path fill="#0000FF" d="M76.262,112.302c0.443,0,0.667,0.221,0.667,0.662v1.889c0,0.441-0.224,0.662-0.667,0.662h-4.411
		c-0.444,0-0.667-0.221-0.667-0.662v-1.889c0-0.441,0.223-0.662,0.667-0.662h2.065l0.277,0.266v2.187h2.078v-1.689h-1.051v-0.762
		L76.262,112.302L76.262,112.302z M73.568,113.064h-1.729v1.689h1.729V113.064z"/>
	<path fill="#0000FF" d="M76.929,107.737v0.78H76.77c0.13,0.842,0.193,1.31,0.193,1.398c0,0.336-0.111,0.604-0.34,0.809
		c-0.228,0.205-0.51,0.308-0.848,0.308h-3.359c-0.354,0-0.646-0.113-0.883-0.349c-0.233-0.231-0.352-0.521-0.352-0.873v-1.293
		h-3.495v-0.78H76.929z M76.215,108.517h-4.34v1.086c0,0.435,0.225,0.648,0.666,0.648h3.07c0.441,0,0.662-0.215,0.662-0.648
		C76.273,109.502,76.253,109.138,76.215,108.517z"/>
	<path fill="#0000FF" d="M69.926,105.612v0.797h-0.99v-0.797H69.926z M76.929,105.625v0.771h-5.745v-0.771H76.929z"/>
	<path fill="#0000FF" d="M76.929,101.043v0.771H76.77c0.043,0.312,0.085,0.623,0.124,0.937c0.047,0.385,0.069,0.692,0.069,0.928
		c0,0.428-0.213,0.644-0.639,0.644H74.23c-0.441,0-0.662-0.224-0.662-0.668v-1.849h-1.729v1.688h0.979v0.766h-0.969
		c-0.443,0-0.667-0.223-0.667-0.662v-1.889c0-0.441,0.224-0.662,0.667-0.662L76.929,101.043L76.929,101.043z M76.215,101.804h-2.03
		v1.754h2.065L76.215,101.804z"/>
	<path fill="#0000FF" d="M76.273,93.59c0.19,0,0.352,0.062,0.473,0.188c0.123,0.125,0.185,0.284,0.185,0.479v2.379
		c0,0.193-0.062,0.354-0.185,0.473c-0.121,0.121-0.279,0.185-0.473,0.185h-7.932c-0.191,0-0.35-0.062-0.473-0.185
		s-0.184-0.276-0.184-0.473v-2.379c0-0.193,0.061-0.354,0.184-0.479s0.279-0.188,0.473-0.188h2.148v0.828h-2.078v2.055h7.789v-2.055
		h-2.271V93.59H76.273z"/>
	<path fill="#0000FF" d="M76.262,88.95c0.443,0,0.667,0.223,0.667,0.666v1.975c0,0.439-0.224,0.66-0.667,0.66h-4.411
		c-0.444,0-0.667-0.221-0.667-0.66v-1.975c0-0.443,0.223-0.666,0.667-0.666H76.262z M76.238,89.734h-4.363v1.73h4.363V89.734z"/>
	<path fill="#0000FF" d="M76.929,81.893v0.785h-5.042l0.048,1.712h4.995v0.78h-5.042l0.048,1.712h4.995v0.785h-5.745v-0.785h0.16
		c-0.039-0.309-0.081-0.615-0.124-0.921c-0.049-0.374-0.071-0.684-0.071-0.929c0-0.238,0.073-0.417,0.219-0.529
		c-0.043-0.331-0.088-0.659-0.136-0.987c-0.055-0.428-0.083-0.753-0.083-0.974c0-0.436,0.215-0.649,0.645-0.649H76.929z"/>
	<path fill="#0000FF" d="M75.695,77.316c0.354,0,0.646,0.116,0.881,0.351c0.235,0.229,0.354,0.521,0.354,0.874v1.293h2.18v0.783
		h-7.925v-0.783h0.158c-0.037-0.312-0.077-0.622-0.116-0.937c-0.053-0.393-0.077-0.701-0.077-0.926c0-0.438,0.216-0.655,0.644-0.655
		H75.695z M75.576,78.102h-3.688l0.048,1.73h4.305v-1.086C76.238,78.315,76.018,78.102,75.576,78.102z"/>
	<path fill="#0000FF" d="M76.929,72.769v0.775H76.77c0.043,0.312,0.085,0.628,0.124,0.938c0.047,0.38,0.069,0.691,0.069,0.939
		c0,0.425-0.213,0.637-0.639,0.637h-5.143v-0.773h5.043l-0.047-1.74h-4.996V72.77L76.929,72.769L76.929,72.769z"/>
	<path fill="#0000FF" d="M76.929,69.423v1.116c0,0.438-0.224,0.66-0.667,0.66h-4.389v0.689h-0.689v-0.689h-1.789v-0.772h1.789
		v-1.004h0.689v1.004h4.363v-1.004H76.929z"/>
	<path fill="#0000FF" d="M69.926,67.586v0.797h-0.99v-0.797H69.926z M76.929,67.597v0.773h-5.745v-0.773H76.929z"/>
	<path fill="#0000FF" d="M76.929,62.963v0.785h-5.042l0.048,1.729h4.995v0.785h-5.745v-0.785h0.16
		c-0.039-0.307-0.081-0.617-0.124-0.928c-0.049-0.379-0.071-0.689-0.071-0.936c0-0.437,0.216-0.652,0.646-0.652L76.929,62.963
		L76.929,62.963z"/>
	<path fill="#0000FF" d="M78.439,58.427c0.443,0,0.668,0.223,0.668,0.666v1.867c0,0.451-0.281,0.678-0.845,0.678
		c-0.067,0-0.167-0.002-0.3-0.008s-0.229-0.01-0.286-0.01v-0.773h0.762v-1.641h-1.514V60.5c0,0.35-0.114,0.641-0.351,0.873
		c-0.233,0.229-0.528,0.348-0.883,0.348h-3.359c-0.338,0-0.621-0.104-0.848-0.307c-0.228-0.205-0.339-0.476-0.339-0.812
		c0-0.09,0.063-0.557,0.193-1.396H71.18v-0.781L78.439,58.427L78.439,58.427z M76.238,59.207h-4.34
		c-0.04,0.623-0.061,0.981-0.061,1.086c0,0.434,0.222,0.647,0.66,0.647h3.076c0.441,0,0.662-0.217,0.662-0.647L76.238,59.207
		L76.238,59.207z"/>
	<path fill="#0000FF" d="M76.273,50.935c0.19,0,0.352,0.062,0.473,0.187c0.123,0.119,0.185,0.276,0.185,0.473v2.426
		c0,0.193-0.062,0.353-0.185,0.472c-0.121,0.123-0.279,0.186-0.473,0.186h-7.932c-0.191,0-0.35-0.062-0.473-0.186
		c-0.123-0.121-0.184-0.277-0.184-0.472v-2.426c0-0.193,0.061-0.354,0.184-0.473c0.123-0.123,0.279-0.187,0.473-0.187h2.148v0.826
		h-2.078v2.092h7.789v-2.092h-3.194v0.988H72.3v-1.814H76.273L76.273,50.935z"/>
	<path fill="#0000FF" d="M73.074,46.558v0.775h-1.188l0.048,1.442h4.995v0.785h-5.745v-0.785h0.16
		c-0.039-0.258-0.081-0.52-0.124-0.784c-0.049-0.314-0.071-0.574-0.071-0.783c0-0.435,0.215-0.65,0.645-0.65H73.074z"/>
	<path fill="#0000FF" d="M76.262,42.261c0.443,0,0.667,0.221,0.667,0.666V44.9c0,0.441-0.224,0.662-0.667,0.662h-4.411
		c-0.444,0-0.667-0.221-0.667-0.662v-1.973c0-0.445,0.223-0.666,0.667-0.666H76.262z M76.238,43.047h-4.363v1.729h4.363V43.047z"/>
	<path fill="#0000FF" d="M76.929,37.689v0.775H76.77c0.043,0.312,0.085,0.627,0.124,0.938c0.047,0.377,0.069,0.69,0.069,0.938
		c0,0.424-0.213,0.637-0.639,0.637h-5.143v-0.771h5.043l-0.047-1.742h-4.996V37.69L76.929,37.689L76.929,37.689z"/>
	<path fill="#0000FF" d="M75.695,33.109c0.354,0,0.646,0.115,0.881,0.351c0.235,0.229,0.354,0.521,0.354,0.873v1.293h2.18v0.783
		h-7.925v-0.784h0.158c-0.037-0.312-0.077-0.621-0.116-0.935c-0.053-0.395-0.077-0.702-0.077-0.928c0-0.438,0.216-0.654,0.644-0.654
		L75.695,33.109L75.695,33.109z M75.576,33.894h-3.688l0.048,1.73h4.305v-1.086C76.238,34.107,76.018,33.894,75.576,33.894z"/>
	<polygon fill="#0000FF" points="62.527,172.206 62.527,168.937 51.855,168.937 51.855,163.978 48.795,163.978 48.795,168.937 
		41.24,168.937 41.24,163.551 38.211,163.551 38.211,172.206 	"/>
	<path fill="#0000FF" d="M46.951,155.094v4.723c0,1.439,0.828,2.261,2.274,2.261h3.026v-3.115h-2.448v-3.01h3.108v4.014
		c0,1.445,0.824,2.275,2.261,2.275h5.241c1.397,0,2.201-0.81,2.201-2.218c0-0.604-0.062-1.407-0.182-2.395
		c-0.068-0.549-0.145-1.103-0.219-1.648h0.312v-3.146h-13.3C47.779,152.834,46.951,153.657,46.951,155.094z M55.664,155.952h3.875
		l0.063,3.172h-3.938V155.952L55.664,155.952z"/>
	<path fill="#0000FF" d="M46.861,143.607c0,0.593,0.062,1.375,0.196,2.396l0.209,1.647H38.21v3.179h24.316v-5.806
		c0-1.039-0.355-1.918-1.061-2.612c-0.7-0.695-1.587-1.049-2.635-1.049h-9.758C47.668,141.364,46.861,142.181,46.861,143.607z
		 M49.938,144.541h8.604c0.771,0,1.046,0.262,1.046,1.002v2.106h-9.562L49.938,144.541z"/>
	<polygon fill="#0000FF" points="38.211,135.874 38.211,139.138 62.527,139.138 62.527,130.543 59.498,130.543 59.498,135.874 	"/>
	<path fill="#0000FF" d="M46.951,122.116v4.725c0,1.438,0.828,2.26,2.274,2.26h3.026v-3.117h-2.448v-3.008h3.108v4.015
		c0,1.444,0.824,2.274,2.261,2.274h5.241c1.397,0,2.201-0.807,2.201-2.217c0-0.604-0.062-1.408-0.182-2.396
		c-0.068-0.549-0.145-1.098-0.219-1.646h0.312v-3.146h-13.3C47.779,119.855,46.951,120.677,46.951,122.116z M55.664,122.974h3.875
		l0.063,3.168h-3.938V122.974L55.664,122.974z"/>
	<path fill="#0000FF" d="M46.861,110.631c0,0.592,0.062,1.375,0.196,2.393l0.209,1.65H38.21v3.176h24.316v-5.803
		c0-1.039-0.355-1.918-1.061-2.615c-0.7-0.694-1.587-1.047-2.635-1.047h-9.758C47.668,108.385,46.861,109.204,46.861,110.631z
		 M49.938,111.562h8.604c0.771,0,1.046,0.263,1.046,1.002v2.109h-9.562L49.938,111.562z"/>
	<path fill="#0000FF" d="M38.152,96.937l23.603,4.209l0.772,0.009v-3.104l-5.137-0.812v-3.554l5.137-0.811v-3.279l-24.375,4.303
		V96.937L38.152,96.937z M54.361,94.146v2.634l-8.119-1.32L54.361,94.146z"/>
	<path fill="#0000FF" d="M46.951,81.312v4.727c0,1.436,0.828,2.26,2.274,2.26h3.026V85.18h-2.448v-3.008h3.108v4.013
		c0,1.446,0.824,2.276,2.261,2.276h5.241c1.397,0,2.201-0.812,2.201-2.218c0-0.604-0.062-1.407-0.182-2.396
		c-0.068-0.55-0.145-1.099-0.219-1.648h0.312v-3.146h-13.3C47.779,79.053,46.951,79.878,46.951,81.312z M55.664,82.172h3.875
		l0.063,3.17h-3.938V82.172L55.664,82.172z"/>
	<path fill="#0000FF" d="M46.951,70.126v4.665c0,1.437,0.828,2.261,2.274,2.261h11.025c1.446,0,2.274-0.824,2.274-2.261v-4.665
		c0-1.438-0.828-2.262-2.274-2.262h-3.87v3.148h3.204v2.86h-9.693v-2.86h2.806v-3.148h-3.472
		C47.779,67.864,46.951,68.687,46.951,70.126z"/>
	<path fill="#0000FF" d="M46.861,58.67c0,0.59,0.062,1.375,0.196,2.393l0.209,1.648H38.21v3.178h24.316v-3.178H50.022L49.938,59.6
		h12.59v-3.176h-13.45C47.668,56.424,46.861,57.243,46.861,58.67z"/>
	<path fill="#0000FF" d="M46.951,47.48v4.726c0,1.438,0.828,2.26,2.274,2.26h11.025c1.446,0,2.274-0.824,2.274-2.26V47.48
		c0-1.438-0.828-2.262-2.274-2.262h-3.204v3.119h2.627v3.008h-3.979v-5.113l-1.057-1.014h-5.41
		C47.779,45.219,46.951,46.045,46.951,47.48z M52.914,51.345h-3.109v-3.008h3.109V51.345z"/>
	<path fill="#0000FF" d="M46.861,35.967c0,0.635,0.062,1.445,0.185,2.416c0.075,0.543,0.147,1.086,0.222,1.627h-0.314v3.176H62.53
		V40.01H50.023l-0.084-3.111h12.59V33.72H49.08C47.668,33.72,46.861,34.54,46.861,35.967z"/>
	<polygon fill="#0000FF" points="489.659,139.433 488.895,137.834 483.671,140.327 482.512,137.898 481.014,138.614 
		482.174,141.041 478.473,142.805 477.217,140.168 475.733,140.875 477.753,145.113 	"/>
	<path fill="#0000FF" d="M478.036,134.693l1.104,2.312c0.336,0.705,0.934,0.913,1.643,0.575l1.48-0.707l-0.729-1.526l-1.197,0.572
		l-0.703-1.473l1.521-0.728l0.938,1.966c0.336,0.707,0.934,0.921,1.637,0.585l2.566-1.224c0.686-0.327,0.889-0.909,0.561-1.599
		c-0.141-0.297-0.358-0.677-0.647-1.132c-0.161-0.252-0.325-0.506-0.489-0.756l0.148-0.072l-0.732-1.54l-6.513,3.106
		C477.916,133.393,477.702,133.991,478.036,134.693z M482.503,133.079l1.896-0.904l0.771,1.537l-1.93,0.92L482.503,133.079z"/>
	<path fill="#0000FF" d="M475.311,129.092c0.137,0.289,0.352,0.657,0.654,1.127l0.486,0.758l-4.434,2.115l0.742,1.557l11.903-5.68
		l-1.354-2.842c-0.242-0.508-0.621-0.855-1.129-1.032c-0.506-0.177-1.021-0.143-1.535,0.103l-4.775,2.278
		C475.18,127.804,474.977,128.392,475.311,129.092z M477.034,128.831l4.213-2.009c0.381-0.182,0.572-0.116,0.746,0.244l0.492,1.032
		l-4.684,2.233L477.034,128.831z"/>
	<polygon fill="#0000FF" points="469.27,127.325 470.032,128.924 481.936,123.246 479.928,119.037 478.446,119.745 479.692,122.353 
			"/>
	<path fill="#0000FF" d="M470.337,118.548l1.104,2.313c0.336,0.703,0.934,0.911,1.644,0.574l1.481-0.707l-0.729-1.525l-1.199,0.571
		l-0.703-1.473l1.521-0.727l0.938,1.965c0.336,0.708,0.934,0.922,1.639,0.587l2.564-1.226c0.684-0.325,0.891-0.908,0.561-1.599
		c-0.141-0.296-0.357-0.676-0.646-1.131c-0.162-0.253-0.326-0.504-0.49-0.756l0.152-0.072l-0.736-1.541l-6.512,3.106
		C470.215,117.249,469.999,117.844,470.337,118.548z M474.802,116.933l1.896-0.903l0.771,1.535l-1.93,0.919L474.802,116.933z"/>
	<path fill="#0000FF" d="M467.61,112.948c0.137,0.289,0.354,0.657,0.654,1.125l0.487,0.76l-4.435,2.114l0.74,1.555l11.906-5.679
		l-1.355-2.842c-0.242-0.509-0.623-0.855-1.129-1.032c-0.506-0.178-1.021-0.143-1.535,0.103l-4.777,2.279
		C467.479,111.659,467.276,112.249,467.61,112.948z M469.335,112.683l4.213-2.008c0.377-0.18,0.57-0.117,0.746,0.246l0.49,1.032
		l-4.684,2.232L469.335,112.683z"/>
	<path fill="#0000FF" d="M460.147,108.276l12.539-3.45l0.379-0.178l-0.725-1.52l-2.703,0.802l-0.83-1.739l2.326-1.596l-0.77-1.604
		l-10.928,7.799L460.147,108.276L460.147,108.276z M467.43,103.125l0.614,1.289l-4.282,1.249L467.43,103.125z"/>
	<path fill="#0000FF" d="M460.807,98.573l1.104,2.312c0.334,0.702,0.936,0.912,1.643,0.574l1.48-0.707l-0.729-1.527l-1.199,0.572
		l-0.701-1.473l1.521-0.728l0.938,1.966c0.338,0.708,0.938,0.922,1.639,0.586l2.564-1.224c0.688-0.327,0.889-0.911,0.562-1.602
		c-0.143-0.295-0.357-0.675-0.648-1.129c-0.162-0.254-0.326-0.505-0.492-0.757l0.152-0.072l-0.734-1.54l-6.512,3.105
		C460.684,97.272,460.471,97.87,460.807,98.573z M465.272,96.958l1.898-0.905l0.771,1.537l-1.928,0.92L465.272,96.958z"/>
	<path fill="#0000FF" d="M458.194,93.094l1.09,2.284c0.334,0.703,0.934,0.913,1.643,0.575l5.396-2.575
		c0.709-0.338,0.922-0.936,0.586-1.638l-1.09-2.284c-0.336-0.703-0.934-0.914-1.641-0.576l-1.896,0.904l0.734,1.541l1.568-0.748
		l0.668,1.399l-4.746,2.266l-0.668-1.401l1.373-0.654l-0.734-1.542l-1.701,0.812C458.071,91.794,457.858,92.39,458.194,93.094z"/>
	<path fill="#0000FF" d="M455.475,87.508c0.137,0.289,0.352,0.658,0.654,1.125l0.486,0.759l-4.434,2.114l0.742,1.557l11.902-5.68
		l-0.74-1.555l-6.123,2.92l-0.768-1.503l6.164-2.94l-0.742-1.555l-6.584,3.141C455.344,86.219,455.141,86.808,455.475,87.508z"/>
	<path fill="#0000FF" d="M452.905,82.009l1.104,2.312c0.336,0.704,0.934,0.913,1.643,0.575l5.398-2.575
		c0.707-0.338,0.92-0.936,0.586-1.638l-1.104-2.312c-0.336-0.704-0.934-0.914-1.643-0.577l-1.568,0.749l0.729,1.527l1.285-0.613
		l0.701,1.473l-1.947,0.93l-1.193-2.504l-0.756-0.25l-2.648,1.264C452.782,80.707,452.571,81.305,452.905,82.009z M456.727,82.509
		l-1.523,0.727l-0.701-1.472l1.523-0.727L456.727,82.509z"/>
	<path fill="#0000FF" d="M450.174,76.392c0.146,0.312,0.367,0.693,0.652,1.141c0.164,0.249,0.326,0.497,0.488,0.745l-0.154,0.073
		l0.742,1.555l7.627-3.638l-0.742-1.555l-6.123,2.92l-0.768-1.504l6.164-2.94l-0.742-1.556l-6.584,3.141
		C450.044,75.104,449.84,75.693,450.174,76.392z"/>
	<path fill="#0000FF" d="M484.862,148.02l1.564,1.163c-0.129,0.229-0.197,0.477-0.188,0.741c0.047,1.305,1.252,2.433,3.607,2.608
		c2.057,0.153,3.854-1.08,3.809-2.308c-0.057-1.488-1.74-2.633-3.604-2.647c-0.361-0.004-0.748,0.039-1.137,0.121l-1.387-0.952
		l2.85-1.358l7.605,5.172l0.932-0.443c-2.561-4.99-8.645-7.069-13.738-4.64c-1.607,0.767-2.926,1.891-3.908,3.23l0.84,0.626
		L484.862,148.02z"/>
	<path fill="#0000FF" d="M486.12,162.456l0.227-1.937c0.262-0.003,0.512-0.066,0.734-0.208c1.107-0.691,1.48-2.3,0.455-4.43
		c-0.895-1.857-2.861-2.801-3.9-2.146c-1.261,0.795-1.408,2.823-0.492,4.445c0.178,0.313,0.408,0.628,0.674,0.921l-0.131,1.679
		l-2.603-1.787l0.677-9.177l-0.854-0.584c-3.041,4.715-1.801,11.021,2.855,14.222c1.463,1.007,3.098,1.587,4.75,1.77l0.123-1.041
		L486.12,162.456z"/>
	<path fill="#0000FF" d="M497.991,154.148l-1.789,0.773c-0.133-0.227-0.312-0.41-0.549-0.535c-1.151-0.611-2.729-0.131-4.062,1.82
		c-1.162,1.706-0.992,3.881,0.094,4.453c1.318,0.694,3.15-0.192,4.096-1.799c0.186-0.31,0.342-0.665,0.461-1.041l1.52-0.726
		l-0.246,3.146l-8.283,4.003l-0.08,1.028c5.604,0.276,10.445-3.952,10.891-9.581c0.139-1.774-0.178-3.479-0.846-5l-0.963,0.412
		L497.991,154.148z"/>
	<path fill="#0000FF" d="M188.805,49.662l0.369-0.775l5.205,0.578l0.104,0.172l-0.63,1.32l3.067,1.465l0.907-1.9l-7.686-3.666
		l0.354-0.741l8.341,3.979l-1.332,2.793c-0.083,0.174-0.206,0.293-0.369,0.349c-0.163,0.06-0.33,0.047-0.507-0.036l-3.165-1.511
		c-0.4-0.191-0.474-0.558-0.215-1.099c0.025-0.053,0.065-0.131,0.118-0.23c0.055-0.1,0.094-0.172,0.116-0.22
		C191.928,49.98,190.368,49.825,188.805,49.662z"/>
	<path fill="#0000FF" d="M194.239,59.738l-7.822-5.124l0.288-0.604l6.722,2.094c0.111,0.05,0.278,0.12,0.5,0.216
		c-0.112-0.056-0.271-0.142-0.479-0.256l-5.857-3.905l0.287-0.604l8.904,2.854l-0.351,0.734l-6.355-2.161
		c-0.138-0.062-0.34-0.146-0.604-0.264c0.136,0.062,0.331,0.163,0.586,0.306l5.604,3.734l-0.303,0.634l-6.427-2.011
		c-0.141-0.059-0.343-0.146-0.606-0.264c0.135,0.062,0.33,0.168,0.585,0.309l5.68,3.579L194.239,59.738z"/>
	<path fill="#0000FF" d="M191.74,63.29l0.615-1.29l-7.687-3.666l0.354-0.742l7.686,3.666l0.618-1.298l0.655,0.312l-1.588,3.33
		L191.74,63.29z"/>
	<path fill="#0000FF" d="M181.975,63.983l0.353-0.737l4.008,1.911l0.959-2.013l-4.008-1.911l0.354-0.739l8.341,3.978l-0.354,0.74
		l-3.666-1.749l-0.96,2.012l3.667,1.749l-0.353,0.739L181.975,63.983z"/>
	<path fill="#0000FF" d="M178.716,70.816l0.353-0.734l1.995,0.593l0.79-1.657l-1.716-1.178l0.342-0.716l0.02,0.01l7.634,5.464
		l-0.35,0.732L178.716,70.816z M181.764,70.889l4.865,1.425l-4.168-2.892L181.764,70.889z"/>
	<path fill="#0000FF" d="M176.881,74.663l0.332-0.697l0.146,0.069c0.096-0.302,0.189-0.6,0.29-0.897
		c0.124-0.367,0.232-0.657,0.335-0.866c0.185-0.389,0.469-0.49,0.854-0.308l1.894,0.902c0.396,0.188,0.502,0.485,0.31,0.889
		l-0.795,1.667l1.562,0.744l0.727-1.525l-0.883-0.421l0.328-0.688l0.874,0.417c0.398,0.19,0.507,0.485,0.315,0.885l-0.812,1.707
		c-0.189,0.397-0.486,0.501-0.888,0.311L176.881,74.663L176.881,74.663z M177.854,74.283l1.834,0.875l0.755-1.583l-1.866-0.891
		L177.854,74.283z"/>
	<path fill="#0000FF" d="M175.557,78.991c-0.402-0.191-0.509-0.488-0.318-0.884l0.804-1.685c0.19-0.398,0.484-0.5,0.889-0.309
		l3.979,1.898c0.4,0.191,0.508,0.485,0.317,0.883l-0.806,1.687c-0.188,0.395-0.483,0.5-0.887,0.308l-1.033-0.493l0.332-0.697
		l1.015,0.481l0.699-1.47l-3.938-1.878l-0.701,1.47l1.156,0.552l-0.332,0.697L175.557,78.991z"/>
	<path fill="#0000FF" d="M172.986,82.833l0.337-0.707l4.551,2.171l0.702-1.583l-4.509-2.15l0.337-0.706l8.341,3.979l-0.337,0.707
		l-3.299-1.574c-0.102,0.299-0.197,0.597-0.297,0.896c-0.124,0.378-0.231,0.666-0.329,0.871c-0.188,0.393-0.477,0.496-0.863,0.312
		L172.986,82.833L172.986,82.833z"/>
	<path fill="#0000FF" d="M171.658,87.166c-0.401-0.191-0.508-0.484-0.317-0.883l0.813-1.707c0.19-0.398,0.484-0.5,0.887-0.31
		l3.981,1.899c0.398,0.191,0.508,0.484,0.315,0.883l-0.812,1.707c-0.189,0.396-0.485,0.5-0.887,0.309l-1.866-0.891l-0.136-0.357
		l0.939-1.974l-1.876-0.895l-0.728,1.524l0.947,0.452l-0.326,0.688L171.658,87.166L171.658,87.166z M174.417,87.638l1.562,0.744
		l0.728-1.525l-1.561-0.743L174.417,87.638z"/>
	<path fill="#0000FF" d="M169.076,91.03l0.337-0.707l4.551,2.171l0.702-1.583l-4.509-2.149l0.338-0.709l5.188,2.473l-0.34,0.709
		l-0.145-0.068c-0.097,0.294-0.192,0.593-0.287,0.892c-0.12,0.36-0.229,0.651-0.338,0.873c-0.188,0.396-0.477,0.497-0.864,0.312
		l-4.634-2.21L169.076,91.03z"/>
	<path fill="#0000FF" d="M169.068,93.46l-1.306-1.198l0.242-0.511l1.456,0.883L169.068,93.46z"/>
	<path fill="#0000FF" d="M164.636,100.338l0.334-0.7l5.278,2.52c0.076,0.035,0.282,0.164,0.621,0.389l-4.502-3.821l0.071-0.149
		l5.804,1.093c-0.389-0.124-0.62-0.204-0.69-0.238l-5.28-2.52l0.333-0.697l8.341,3.978l-0.328,0.688l-6.071-1.233
		c-0.03-0.005-0.115-0.036-0.25-0.094c0.055,0.025,0.132,0.07,0.229,0.138l4.781,3.94l-0.329,0.688L164.636,100.338L164.636,100.338
		z"/>
	<path fill="#0000FF" d="M163.262,104.769c-0.402-0.191-0.51-0.485-0.317-0.885l0.812-1.705c0.189-0.397,0.484-0.502,0.889-0.311
		l3.979,1.897c0.401,0.191,0.507,0.487,0.317,0.887l-0.813,1.703c-0.188,0.398-0.484,0.502-0.887,0.312l-1.866-0.89l-0.136-0.359
		l0.94-1.973l-1.876-0.896l-0.729,1.524l0.949,0.453l-0.328,0.688L163.262,104.769L163.262,104.769z M166.021,105.242l1.56,0.744
		l0.729-1.525l-1.562-0.743L166.021,105.242z"/>
	<path fill="#0000FF" d="M160.694,108.603l0.336-0.705l0.145,0.068c0.245-0.815,0.389-1.265,0.428-1.346
		c0.145-0.305,0.359-0.496,0.652-0.584c0.294-0.087,0.595-0.058,0.897,0.089l3.032,1.446c0.317,0.151,0.536,0.381,0.646,0.692
		c0.111,0.312,0.094,0.622-0.059,0.939l-0.559,1.167l3.156,1.505l-0.337,0.705L160.694,108.603z M161.674,108.207l3.918,1.868
		l0.469-0.98c0.188-0.392,0.078-0.681-0.321-0.872l-2.771-1.321c-0.396-0.189-0.688-0.092-0.877,0.302
		C162.045,107.293,161.908,107.629,161.674,108.207z"/>
	<path fill="#0000FF" d="M166.1,113.538l0.343-0.722l0.896,0.429l-0.343,0.72L166.1,113.538z M159.786,110.51l0.332-0.697
		l5.188,2.475l-0.332,0.695L159.786,110.51z"/>
	<path fill="#0000FF" d="M157.813,114.644l0.332-0.694l0.144,0.067c0.096-0.301,0.191-0.6,0.291-0.897
		c0.123-0.367,0.233-0.656,0.335-0.867c0.186-0.387,0.469-0.488,0.854-0.306l1.891,0.901c0.398,0.19,0.502,0.486,0.312,0.889
		l-0.795,1.668l1.56,0.743l0.727-1.522l-0.884-0.421l0.33-0.69l0.874,0.416c0.4,0.191,0.507,0.488,0.317,0.885l-0.812,1.705
		c-0.188,0.398-0.488,0.502-0.888,0.312L157.813,114.644L157.813,114.644z M158.785,114.264l1.835,0.875l0.754-1.583l-1.865-0.89
		L158.785,114.264z"/>
	<path fill="#0000FF" d="M155.196,121.655c-0.174-0.082-0.291-0.207-0.346-0.373c-0.06-0.165-0.043-0.336,0.042-0.513l1.021-2.146
		c0.083-0.175,0.207-0.291,0.368-0.349c0.162-0.058,0.332-0.046,0.506,0.038l7.157,3.413c0.175,0.083,0.289,0.207,0.348,0.369
		c0.061,0.164,0.046,0.329-0.038,0.506l-1.021,2.147c-0.084,0.174-0.207,0.293-0.373,0.354c-0.164,0.061-0.332,0.049-0.507-0.034
		l-1.939-0.925l0.356-0.747l1.876,0.896l0.884-1.855l-7.029-3.353l-0.885,1.854l2.052,0.979l-0.354,0.748L155.196,121.655z"/>
	<path fill="#0000FF" d="M153.209,125.847c-0.399-0.19-0.506-0.488-0.313-0.888l0.851-1.782c0.188-0.396,0.484-0.501,0.886-0.309
		l3.981,1.897c0.401,0.191,0.507,0.486,0.318,0.884l-0.853,1.782c-0.188,0.399-0.488,0.505-0.889,0.313L153.209,125.847z
		 M153.568,125.149l3.938,1.879l0.744-1.562l-3.938-1.878L153.568,125.149z"/>
	<path fill="#0000FF" d="M149.569,131.929l0.338-0.708l4.551,2.171l0.694-1.566l-4.509-2.15l0.336-0.703l4.551,2.171l0.694-1.565
		l-4.511-2.15l0.34-0.709l5.186,2.473l-0.338,0.71l-0.146-0.068c-0.098,0.295-0.189,0.59-0.283,0.885
		c-0.118,0.357-0.23,0.647-0.336,0.868c-0.104,0.215-0.245,0.346-0.426,0.384c-0.104,0.318-0.205,0.633-0.303,0.95
		c-0.136,0.41-0.25,0.715-0.345,0.914c-0.188,0.393-0.476,0.494-0.861,0.31L149.569,131.929z"/>
	<path fill="#0000FF" d="M148.712,136.592c-0.317-0.152-0.533-0.385-0.645-0.695c-0.114-0.309-0.093-0.621,0.06-0.939l0.559-1.167
		l-1.971-0.938l0.34-0.707l7.151,3.411l-0.337,0.707l-0.145-0.067c-0.102,0.299-0.197,0.596-0.298,0.895
		c-0.122,0.377-0.231,0.668-0.327,0.869c-0.189,0.396-0.479,0.5-0.864,0.314L148.712,136.592z M149.158,135.934l3.331,1.589
		l0.701-1.583l-3.885-1.853l-0.47,0.979C148.653,135.456,148.759,135.745,149.158,135.934z"/>
	<path fill="#0000FF" d="M145.641,140.165l0.334-0.699l0.144,0.068c0.097-0.302,0.193-0.604,0.292-0.899
		c0.121-0.362,0.233-0.654,0.34-0.879c0.185-0.382,0.467-0.483,0.853-0.3l4.642,2.214l-0.333,0.698l-4.552-2.171l-0.707,1.591
		l4.51,2.15l-0.334,0.699L145.641,140.165L145.641,140.165z"/>
	<path fill="#0000FF" d="M144.201,143.186l0.48-1.009c0.188-0.396,0.482-0.5,0.887-0.309l3.959,1.889l0.297-0.622l0.624,0.298
		l-0.297,0.622l1.615,0.771l-0.333,0.697l-1.615-0.77l-0.432,0.906l-0.624-0.298l0.432-0.906l-3.938-1.878l-0.432,0.905
		L144.201,143.186z"/>
	<path fill="#0000FF" d="M149.731,147.857l0.343-0.719l0.896,0.428l-0.345,0.72L149.731,147.857z M143.415,144.833l0.334-0.698
		l5.188,2.474l-0.334,0.698L143.415,144.833z"/>
	<path fill="#0000FF" d="M141.42,149.015l0.338-0.708l4.553,2.171l0.699-1.581l-4.51-2.149l0.339-0.709l5.188,2.474l-0.339,0.709
		l-0.146-0.068c-0.097,0.293-0.189,0.592-0.287,0.891c-0.121,0.362-0.23,0.653-0.338,0.875c-0.188,0.394-0.477,0.496-0.861,0.312
		L141.42,149.015L141.42,149.015z"/>
	<path fill="#0000FF" d="M138.104,152.459c-0.402-0.191-0.508-0.488-0.316-0.889l0.804-1.686c0.194-0.407,0.548-0.491,1.057-0.249
		c0.061,0.029,0.147,0.074,0.266,0.136c0.117,0.062,0.202,0.107,0.255,0.134l-0.334,0.697l-0.686-0.328l-0.707,1.48l1.364,0.651
		l0.557-1.167c0.151-0.315,0.381-0.528,0.693-0.638c0.31-0.106,0.626-0.087,0.944,0.065l3.031,1.446
		c0.306,0.146,0.517,0.36,0.634,0.642c0.115,0.282,0.104,0.575-0.043,0.878c-0.039,0.081-0.299,0.474-0.775,1.176l0.145,0.069
		l-0.337,0.705L138.104,152.459L138.104,152.459z M140.426,152.704l3.917,1.869c0.306-0.547,0.478-0.862,0.521-0.955
		c0.187-0.393,0.081-0.681-0.316-0.87l-2.775-1.324c-0.398-0.189-0.69-0.089-0.877,0.301L140.426,152.704z"/>
	<path fill="#0000FF" d="M136.834,160.155c-0.173-0.083-0.29-0.208-0.347-0.371c-0.06-0.16-0.045-0.329,0.039-0.506l1.044-2.189
		c0.083-0.174,0.207-0.29,0.367-0.346c0.162-0.06,0.333-0.047,0.507,0.036l7.157,3.412c0.175,0.084,0.289,0.207,0.347,0.371
		c0.06,0.162,0.046,0.33-0.037,0.504l-1.044,2.189c-0.083,0.175-0.206,0.293-0.369,0.348c-0.164,0.06-0.332,0.048-0.507-0.035
		l-1.938-0.926l0.354-0.745l1.875,0.896l0.901-1.888l-7.031-3.354l-0.9,1.889l2.887,1.375l0.426-0.893l0.639,0.305l-0.781,1.64
		L136.834,160.155L136.834,160.155z"/>
	<path fill="#0000FF" d="M137.837,165.482l0.333-0.699l1.073,0.512l0.578-1.323l-4.509-2.149l0.338-0.709l5.186,2.474l-0.338,0.708
		l-0.145-0.068c-0.075,0.249-0.15,0.504-0.228,0.763c-0.093,0.304-0.183,0.549-0.271,0.737c-0.188,0.392-0.477,0.494-0.862,0.31
		L137.837,165.482z"/>
	<path fill="#0000FF" d="M133.111,167.989c-0.402-0.191-0.507-0.486-0.315-0.89l0.851-1.779c0.188-0.398,0.483-0.503,0.888-0.312
		l3.981,1.899c0.398,0.19,0.507,0.485,0.314,0.885l-0.849,1.78c-0.191,0.401-0.488,0.505-0.891,0.312L133.111,167.989z
		 M133.469,167.29l3.938,1.879l0.744-1.562l-3.938-1.878L133.469,167.29z"/>
	<path fill="#0000FF" d="M130.54,171.829l0.334-0.7l0.146,0.068c0.096-0.301,0.19-0.604,0.291-0.899
		c0.12-0.359,0.231-0.654,0.34-0.878c0.183-0.383,0.467-0.483,0.852-0.3l4.643,2.214l-0.332,0.696l-4.551-2.173l-0.711,1.594
		l4.512,2.15l-0.334,0.7L130.54,171.829L130.54,171.829z"/>
	<path fill="#0000FF" d="M129.682,176.494c-0.319-0.152-0.536-0.385-0.646-0.694c-0.114-0.31-0.093-0.623,0.061-0.938l0.557-1.169
		l-1.969-0.938l0.338-0.707l7.151,3.411l-0.337,0.707l-0.145-0.069c-0.102,0.3-0.196,0.595-0.296,0.896
		c-0.124,0.377-0.233,0.667-0.329,0.87c-0.188,0.395-0.479,0.496-0.863,0.312L129.682,176.494L129.682,176.494z M130.127,175.836
		l3.331,1.588l0.701-1.582l-3.886-1.854l-0.467,0.979C129.622,175.358,129.729,175.645,130.127,175.836z"/>
</g>
<g id="Cut_1_">
	
		<line fill="none" stroke="#ED1F24" stroke-width="0.9921" stroke-miterlimit="10" x1="429.971" y1="139.514" x2="420.819" y2="120.327"/>
	
		<line fill="none" stroke="#ED1F24" stroke-width="0.9921" stroke-miterlimit="10" x1="440.952" y1="162.541" x2="431.802" y2="143.352"/>
	
		<line fill="none" stroke="#ED1F24" stroke-width="0.9921" stroke-miterlimit="10" x1="427.038" y1="126.782" x2="421.241" y2="114.628"/>
	
		<line fill="none" stroke="#ED1F24" stroke-width="0.9921" stroke-miterlimit="10" x1="438.02" y1="149.808" x2="428.868" y2="130.62"/>
	
		<line fill="none" stroke="#ED1F24" stroke-width="0.9921" stroke-miterlimit="10" x1="445.647" y1="165.799" x2="439.85" y2="153.646"/>
	
		<line fill="none" stroke="#ED1F24" stroke-width="0.9921" stroke-miterlimit="10" x1="435.09" y1="137.075" x2="425.936" y2="117.885"/>
	
		<line fill="none" stroke="#ED1F24" stroke-width="0.9921" stroke-miterlimit="10" x1="446.069" y1="160.101" x2="436.919" y2="140.913"/>
	
		<line fill="none" stroke="#ED1F24" stroke-width="0.9921" stroke-miterlimit="10" x1="432.155" y1="124.341" x2="426.358" y2="112.187"/>
	
		<line fill="none" stroke="#ED1F24" stroke-width="0.9921" stroke-miterlimit="10" x1="443.137" y1="147.368" x2="433.985" y2="128.178"/>
	
		<line fill="none" stroke="#ED1F24" stroke-width="0.9921" stroke-miterlimit="10" x1="450.764" y1="163.359" x2="444.969" y2="151.206"/>
	
		<line fill="none" stroke="#ED1F24" stroke-width="0.9921" stroke-miterlimit="10" x1="440.206" y1="134.633" x2="431.053" y2="115.446"/>
	
		<line fill="none" stroke="#ED1F24" stroke-width="0.9921" stroke-miterlimit="10" x1="451.186" y1="157.661" x2="442.036" y2="138.47"/>
	
		<line fill="none" stroke="#ED1F24" stroke-width="0.9921" stroke-miterlimit="10" x1="437.272" y1="121.9" x2="431.475" y2="109.747"/>
	
		<line fill="none" stroke="#ED1F24" stroke-width="0.9921" stroke-miterlimit="10" x1="448.256" y1="144.927" x2="439.102" y2="125.739"/>
	
		<line fill="none" stroke="#ED1F24" stroke-width="0.9921" stroke-miterlimit="10" x1="455.883" y1="160.918" x2="450.087" y2="148.765"/>
	
		<line fill="none" stroke="#ED1F24" stroke-width="0.9921" stroke-miterlimit="10" x1="445.323" y1="132.193" x2="436.172" y2="113.004"/>
	
		<line fill="none" stroke="#ED1F24" stroke-width="0.9921" stroke-miterlimit="10" x1="456.303" y1="155.219" x2="447.153" y2="136.032"/>
	
		<line fill="none" stroke="#ED1F24" stroke-width="0.9921" stroke-miterlimit="10" x1="442.389" y1="119.459" x2="436.594" y2="107.306"/>
	
		<line fill="none" stroke="#ED1F24" stroke-width="0.9921" stroke-miterlimit="10" x1="453.372" y1="142.487" x2="444.219" y2="123.297"/>
	
		<line fill="none" stroke="#ED1F24" stroke-width="0.9921" stroke-miterlimit="10" x1="460.999" y1="158.477" x2="455.202" y2="146.325"/>
	
		<line fill="none" stroke="#ED1F24" stroke-width="0.9921" stroke-miterlimit="10" x1="450.44" y1="129.752" x2="441.288" y2="110.563"/>
	
		<line fill="none" stroke="#ED1F24" stroke-width="0.9921" stroke-miterlimit="10" x1="461.422" y1="152.78" x2="452.27" y2="133.59"/>
	
		<line fill="none" stroke="#ED1F24" stroke-width="0.9921" stroke-miterlimit="10" x1="447.508" y1="117.019" x2="441.712" y2="104.866"/>
	
		<line fill="none" stroke="#ED1F24" stroke-width="0.9921" stroke-miterlimit="10" x1="458.489" y1="140.046" x2="449.337" y2="120.857"/>
	
		<line fill="none" stroke="#ED1F24" stroke-width="0.9921" stroke-miterlimit="10" x1="466.116" y1="156.038" x2="460.319" y2="143.884"/>
	
		<line fill="none" stroke="#ED1F24" stroke-width="0.9921" stroke-miterlimit="10" x1="207.502" y1="139.514" x2="216.655" y2="120.327"/>
	
		<line fill="none" stroke="#ED1F24" stroke-width="0.9921" stroke-miterlimit="10" x1="196.521" y1="162.541" x2="205.672" y2="143.352"/>
	
		<line fill="none" stroke="#ED1F24" stroke-width="0.9921" stroke-miterlimit="10" x1="210.436" y1="126.782" x2="216.232" y2="114.628"/>
	
		<line fill="none" stroke="#ED1F24" stroke-width="0.9921" stroke-miterlimit="10" x1="199.454" y1="149.808" x2="208.605" y2="130.62"/>
	
		<line fill="none" stroke="#ED1F24" stroke-width="0.9921" stroke-miterlimit="10" x1="191.827" y1="165.799" x2="197.623" y2="153.646"/>
	
		<line fill="none" stroke="#ED1F24" stroke-width="0.9921" stroke-miterlimit="10" x1="202.385" y1="137.075" x2="211.538" y2="117.885"/>
	
		<line fill="none" stroke="#ED1F24" stroke-width="0.9921" stroke-miterlimit="10" x1="191.404" y1="160.101" x2="200.555" y2="140.913"/>
	
		<line fill="none" stroke="#ED1F24" stroke-width="0.9921" stroke-miterlimit="10" x1="205.319" y1="124.341" x2="211.115" y2="112.187"/>
	
		<line fill="none" stroke="#ED1F24" stroke-width="0.9921" stroke-miterlimit="10" x1="194.336" y1="147.368" x2="203.488" y2="128.178"/>
	
		<line fill="none" stroke="#ED1F24" stroke-width="0.9921" stroke-miterlimit="10" x1="186.71" y1="163.359" x2="192.505" y2="151.206"/>
	
		<line fill="none" stroke="#ED1F24" stroke-width="0.9921" stroke-miterlimit="10" x1="197.268" y1="134.633" x2="206.42" y2="115.446"/>
	
		<line fill="none" stroke="#ED1F24" stroke-width="0.9921" stroke-miterlimit="10" x1="186.287" y1="157.661" x2="195.438" y2="138.47"/>
	
		<line fill="none" stroke="#ED1F24" stroke-width="0.9921" stroke-miterlimit="10" x1="200.201" y1="121.9" x2="205.998" y2="109.747"/>
	
		<line fill="none" stroke="#ED1F24" stroke-width="0.9921" stroke-miterlimit="10" x1="189.218" y1="144.927" x2="198.371" y2="125.739"/>
	
		<line fill="none" stroke="#ED1F24" stroke-width="0.9921" stroke-miterlimit="10" x1="181.591" y1="160.918" x2="187.388" y2="148.765"/>
	
		<line fill="none" stroke="#ED1F24" stroke-width="0.9921" stroke-miterlimit="10" x1="192.151" y1="132.193" x2="201.303" y2="113.004"/>
	
		<line fill="none" stroke="#ED1F24" stroke-width="0.9921" stroke-miterlimit="10" x1="181.169" y1="155.219" x2="190.321" y2="136.032"/>
	
		<line fill="none" stroke="#ED1F24" stroke-width="0.9921" stroke-miterlimit="10" x1="195.084" y1="119.459" x2="200.88" y2="107.306"/>
	
		<line fill="none" stroke="#ED1F24" stroke-width="0.9921" stroke-miterlimit="10" x1="184.101" y1="142.487" x2="193.253" y2="123.297"/>
	
		<line fill="none" stroke="#ED1F24" stroke-width="0.9921" stroke-miterlimit="10" x1="176.474" y1="158.477" x2="182.271" y2="146.325"/>
	
		<line fill="none" stroke="#ED1F24" stroke-width="0.9921" stroke-miterlimit="10" x1="187.034" y1="129.752" x2="196.186" y2="110.563"/>
	
		<line fill="none" stroke="#ED1F24" stroke-width="0.9921" stroke-miterlimit="10" x1="176.052" y1="152.78" x2="185.204" y2="133.59"/>
	
		<line fill="none" stroke="#ED1F24" stroke-width="0.9921" stroke-miterlimit="10" x1="189.966" y1="117.019" x2="195.763" y2="104.866"/>
	
		<line fill="none" stroke="#ED1F24" stroke-width="0.9921" stroke-miterlimit="10" x1="178.984" y1="140.046" x2="188.136" y2="120.857"/>
	
		<line fill="none" stroke="#ED1F24" stroke-width="0.9921" stroke-miterlimit="10" x1="171.357" y1="156.038" x2="177.154" y2="143.884"/>
	
		<line fill="none" stroke="#ED1F24" stroke-width="0.9921" stroke-miterlimit="10" x1="361.21" y1="191.343" x2="361.21" y2="142.681"/>
	
		<line fill="none" stroke="#ED1F24" stroke-width="0.9921" stroke-miterlimit="10" x1="361.21" y1="135.123" x2="361.21" y2="85.991"/>
	
		<line fill="none" stroke="#ED1F24" stroke-width="0.9921" stroke-miterlimit="10" x1="361.21" y1="78.431" x2="361.21" y2="29.763"/>
	
		<line fill="none" stroke="#ED1F24" stroke-width="0.9921" stroke-miterlimit="10" x1="356.956" y1="191.343" x2="356.956" y2="171.028"/>
	
		<line fill="none" stroke="#ED1F24" stroke-width="0.9921" stroke-miterlimit="10" x1="356.956" y1="163.469" x2="356.956" y2="114.336"/>
	
		<line fill="none" stroke="#ED1F24" stroke-width="0.9921" stroke-miterlimit="10" x1="356.956" y1="106.778" x2="356.956" y2="57.644"/>
	
		<line fill="none" stroke="#ED1F24" stroke-width="0.9921" stroke-miterlimit="10" x1="356.956" y1="50.086" x2="356.956" y2="29.763"/>
	
		<line fill="none" stroke="#ED1F24" stroke-width="0.9921" stroke-miterlimit="10" x1="352.704" y1="191.343" x2="352.704" y2="142.681"/>
	
		<line fill="none" stroke="#ED1F24" stroke-width="0.9921" stroke-miterlimit="10" x1="352.704" y1="135.123" x2="352.704" y2="85.991"/>
	
		<line fill="none" stroke="#ED1F24" stroke-width="0.9921" stroke-miterlimit="10" x1="352.704" y1="78.431" x2="352.704" y2="29.763"/>
	
		<line fill="none" stroke="#ED1F24" stroke-width="0.9921" stroke-miterlimit="10" x1="348.452" y1="191.343" x2="348.452" y2="171.028"/>
	
		<line fill="none" stroke="#ED1F24" stroke-width="0.9921" stroke-miterlimit="10" x1="348.452" y1="163.469" x2="348.452" y2="114.336"/>
	
		<line fill="none" stroke="#ED1F24" stroke-width="0.9921" stroke-miterlimit="10" x1="348.452" y1="106.778" x2="348.452" y2="57.644"/>
	
		<line fill="none" stroke="#ED1F24" stroke-width="0.9921" stroke-miterlimit="10" x1="348.452" y1="50.086" x2="348.452" y2="29.763"/>
	
		<line fill="none" stroke="#ED1F24" stroke-width="0.9921" stroke-miterlimit="10" x1="344.2" y1="191.343" x2="344.2" y2="142.681"/>
	
		<line fill="none" stroke="#ED1F24" stroke-width="0.9921" stroke-miterlimit="10" x1="344.2" y1="135.123" x2="344.2" y2="85.991"/>
	<line fill="none" stroke="#ED1F24" stroke-width="0.9921" stroke-miterlimit="10" x1="344.2" y1="78.431" x2="344.2" y2="29.763"/>
	
		<line fill="none" stroke="#ED1F24" stroke-width="0.9921" stroke-miterlimit="10" x1="339.948" y1="191.343" x2="339.948" y2="171.028"/>
	
		<line fill="none" stroke="#ED1F24" stroke-width="0.9921" stroke-miterlimit="10" x1="339.948" y1="163.469" x2="339.948" y2="114.336"/>
	
		<line fill="none" stroke="#ED1F24" stroke-width="0.9921" stroke-miterlimit="10" x1="339.948" y1="106.778" x2="339.948" y2="57.644"/>
	
		<line fill="none" stroke="#ED1F24" stroke-width="0.9921" stroke-miterlimit="10" x1="339.948" y1="50.086" x2="339.948" y2="29.763"/>
	
		<line fill="none" stroke="#ED1F24" stroke-width="0.9921" stroke-miterlimit="10" x1="335.696" y1="191.343" x2="335.696" y2="142.681"/>
	
		<line fill="none" stroke="#ED1F24" stroke-width="0.9921" stroke-miterlimit="10" x1="335.696" y1="135.123" x2="335.696" y2="85.991"/>
	
		<line fill="none" stroke="#ED1F24" stroke-width="0.9921" stroke-miterlimit="10" x1="335.696" y1="78.431" x2="335.696" y2="29.763"/>
	
		<line fill="none" stroke="#ED1F24" stroke-width="0.9921" stroke-miterlimit="10" x1="331.444" y1="191.343" x2="331.444" y2="171.028"/>
	
		<line fill="none" stroke="#ED1F24" stroke-width="0.9921" stroke-miterlimit="10" x1="331.444" y1="163.469" x2="331.444" y2="114.336"/>
	
		<line fill="none" stroke="#ED1F24" stroke-width="0.9921" stroke-miterlimit="10" x1="331.444" y1="106.778" x2="331.444" y2="57.644"/>
	
		<line fill="none" stroke="#ED1F24" stroke-width="0.9921" stroke-miterlimit="10" x1="331.444" y1="50.086" x2="331.444" y2="29.763"/>
	
		<line fill="none" stroke="#ED1F24" stroke-width="0.9921" stroke-miterlimit="10" x1="327.192" y1="191.343" x2="327.192" y2="142.681"/>
	
		<line fill="none" stroke="#ED1F24" stroke-width="0.9921" stroke-miterlimit="10" x1="327.192" y1="135.123" x2="327.192" y2="85.991"/>
	
		<line fill="none" stroke="#ED1F24" stroke-width="0.9921" stroke-miterlimit="10" x1="327.192" y1="78.431" x2="327.192" y2="29.763"/>
	
		<line fill="none" stroke="#ED1F24" stroke-width="0.9921" stroke-miterlimit="10" x1="322.94" y1="191.343" x2="322.94" y2="171.028"/>
	
		<line fill="none" stroke="#ED1F24" stroke-width="0.9921" stroke-miterlimit="10" x1="322.94" y1="163.469" x2="322.94" y2="114.336"/>
	
		<line fill="none" stroke="#ED1F24" stroke-width="0.9921" stroke-miterlimit="10" x1="322.94" y1="106.778" x2="322.94" y2="57.644"/>
	
		<line fill="none" stroke="#ED1F24" stroke-width="0.9921" stroke-miterlimit="10" x1="322.94" y1="50.086" x2="322.94" y2="29.763"/>
	
		<line fill="none" stroke="#ED1F24" stroke-width="0.9921" stroke-miterlimit="10" x1="318.689" y1="191.343" x2="318.689" y2="142.681"/>
	
		<line fill="none" stroke="#ED1F24" stroke-width="0.9921" stroke-miterlimit="10" x1="318.689" y1="135.123" x2="318.689" y2="85.991"/>
	
		<line fill="none" stroke="#ED1F24" stroke-width="0.9921" stroke-miterlimit="10" x1="318.689" y1="78.431" x2="318.689" y2="29.763"/>
	
		<line fill="none" stroke="#ED1F24" stroke-width="0.9921" stroke-miterlimit="10" x1="314.437" y1="191.343" x2="314.437" y2="171.028"/>
	
		<line fill="none" stroke="#ED1F24" stroke-width="0.9921" stroke-miterlimit="10" x1="314.437" y1="163.469" x2="314.437" y2="114.336"/>
	
		<line fill="none" stroke="#ED1F24" stroke-width="0.9921" stroke-miterlimit="10" x1="314.437" y1="106.778" x2="314.437" y2="57.644"/>
	
		<line fill="none" stroke="#ED1F24" stroke-width="0.9921" stroke-miterlimit="10" x1="314.437" y1="50.086" x2="314.437" y2="29.763"/>
	
		<line fill="none" stroke="#ED1F24" stroke-width="0.9921" stroke-miterlimit="10" x1="310.185" y1="191.343" x2="310.185" y2="142.681"/>
	
		<line fill="none" stroke="#ED1F24" stroke-width="0.9921" stroke-miterlimit="10" x1="310.185" y1="135.123" x2="310.185" y2="85.991"/>
	
		<line fill="none" stroke="#ED1F24" stroke-width="0.9921" stroke-miterlimit="10" x1="310.185" y1="78.431" x2="310.185" y2="29.763"/>
	
		<line fill="none" stroke="#ED1F24" stroke-width="0.9921" stroke-miterlimit="10" x1="305.933" y1="191.343" x2="305.933" y2="171.028"/>
	
		<line fill="none" stroke="#ED1F24" stroke-width="0.9921" stroke-miterlimit="10" x1="305.933" y1="163.469" x2="305.933" y2="114.336"/>
	
		<line fill="none" stroke="#ED1F24" stroke-width="0.9921" stroke-miterlimit="10" x1="305.933" y1="106.778" x2="305.933" y2="57.644"/>
	
		<line fill="none" stroke="#ED1F24" stroke-width="0.9921" stroke-miterlimit="10" x1="305.933" y1="50.086" x2="305.933" y2="29.763"/>
	
		<line fill="none" stroke="#ED1F24" stroke-width="0.9921" stroke-miterlimit="10" x1="301.681" y1="191.343" x2="301.681" y2="142.681"/>
	
		<line fill="none" stroke="#ED1F24" stroke-width="0.9921" stroke-miterlimit="10" x1="301.681" y1="135.123" x2="301.681" y2="85.991"/>
	
		<line fill="none" stroke="#ED1F24" stroke-width="0.9921" stroke-miterlimit="10" x1="301.681" y1="78.431" x2="301.681" y2="29.763"/>
	
		<line fill="none" stroke="#ED1F24" stroke-width="0.9921" stroke-miterlimit="10" x1="297.429" y1="191.343" x2="297.429" y2="171.028"/>
	
		<line fill="none" stroke="#ED1F24" stroke-width="0.9921" stroke-miterlimit="10" x1="297.429" y1="163.469" x2="297.429" y2="114.336"/>
	
		<line fill="none" stroke="#ED1F24" stroke-width="0.9921" stroke-miterlimit="10" x1="297.429" y1="106.778" x2="297.429" y2="57.644"/>
	
		<line fill="none" stroke="#ED1F24" stroke-width="0.9921" stroke-miterlimit="10" x1="297.429" y1="50.086" x2="297.429" y2="29.763"/>
	
		<line fill="none" stroke="#ED1F24" stroke-width="0.9921" stroke-miterlimit="10" x1="293.177" y1="191.343" x2="293.177" y2="142.681"/>
	
		<line fill="none" stroke="#ED1F24" stroke-width="0.9921" stroke-miterlimit="10" x1="293.177" y1="135.123" x2="293.177" y2="85.991"/>
	
		<line fill="none" stroke="#ED1F24" stroke-width="0.9921" stroke-miterlimit="10" x1="293.177" y1="78.431" x2="293.177" y2="29.763"/>
	
		<line fill="none" stroke="#ED1F24" stroke-width="0.9921" stroke-miterlimit="10" x1="288.925" y1="191.343" x2="288.925" y2="171.028"/>
	
		<line fill="none" stroke="#ED1F24" stroke-width="0.9921" stroke-miterlimit="10" x1="288.925" y1="163.469" x2="288.925" y2="114.336"/>
	
		<line fill="none" stroke="#ED1F24" stroke-width="0.9921" stroke-miterlimit="10" x1="288.925" y1="106.778" x2="288.925" y2="57.644"/>
	
		<line fill="none" stroke="#ED1F24" stroke-width="0.9921" stroke-miterlimit="10" x1="288.925" y1="50.086" x2="288.925" y2="29.763"/>
	
		<line fill="none" stroke="#ED1F24" stroke-width="0.9921" stroke-miterlimit="10" x1="284.673" y1="191.343" x2="284.673" y2="142.681"/>
	
		<line fill="none" stroke="#ED1F24" stroke-width="0.9921" stroke-miterlimit="10" x1="284.673" y1="135.123" x2="284.673" y2="85.991"/>
	
		<line fill="none" stroke="#ED1F24" stroke-width="0.9921" stroke-miterlimit="10" x1="284.673" y1="78.431" x2="284.673" y2="29.763"/>
	
		<line fill="none" stroke="#ED1F24" stroke-width="0.9921" stroke-miterlimit="10" x1="276.169" y1="191.343" x2="276.169" y2="142.681"/>
	
		<line fill="none" stroke="#ED1F24" stroke-width="0.9921" stroke-miterlimit="10" x1="276.169" y1="135.123" x2="276.169" y2="85.991"/>
	
		<line fill="none" stroke="#ED1F24" stroke-width="0.9921" stroke-miterlimit="10" x1="276.169" y1="78.431" x2="276.169" y2="29.763"/>
	
		<line fill="none" stroke="#ED1F24" stroke-width="0.9921" stroke-miterlimit="10" x1="280.421" y1="191.343" x2="280.421" y2="171.028"/>
	
		<line fill="none" stroke="#ED1F24" stroke-width="0.9921" stroke-miterlimit="10" x1="280.421" y1="163.469" x2="280.421" y2="114.336"/>
	
		<line fill="none" stroke="#ED1F24" stroke-width="0.9921" stroke-miterlimit="10" x1="280.421" y1="106.778" x2="280.421" y2="57.644"/>
	
		<line fill="none" stroke="#ED1F24" stroke-width="0.9921" stroke-miterlimit="10" x1="280.421" y1="50.086" x2="280.421" y2="29.763"/>
	
		<line fill="none" stroke="#ED1F24" stroke-width="0.9921" stroke-miterlimit="10" x1="424.854" y1="141.957" x2="415.702" y2="122.767"/>
	
		<line fill="none" stroke="#ED1F24" stroke-width="0.9921" stroke-miterlimit="10" x1="435.837" y1="164.982" x2="426.684" y2="145.794"/>
	
		<line fill="none" stroke="#ED1F24" stroke-width="0.9921" stroke-miterlimit="10" x1="421.922" y1="129.222" x2="416.124" y2="117.07"/>
	
		<line fill="none" stroke="#ED1F24" stroke-width="0.9921" stroke-miterlimit="10" x1="432.903" y1="152.25" x2="423.753" y2="133.06"/>
	
		<line fill="none" stroke="#ED1F24" stroke-width="0.9921" stroke-miterlimit="10" x1="440.53" y1="168.241" x2="434.733" y2="156.088"/>
	
		<line fill="none" stroke="#ED1F24" stroke-width="0.9921" stroke-miterlimit="10" x1="212.62" y1="141.957" x2="221.772" y2="122.767"/>
	
		<line fill="none" stroke="#ED1F24" stroke-width="0.9921" stroke-miterlimit="10" x1="201.638" y1="164.982" x2="210.79" y2="145.794"/>
	
		<line fill="none" stroke="#ED1F24" stroke-width="0.9921" stroke-miterlimit="10" x1="215.553" y1="129.222" x2="221.349" y2="117.07"/>
	
		<line fill="none" stroke="#ED1F24" stroke-width="0.9921" stroke-miterlimit="10" x1="204.571" y1="152.25" x2="213.722" y2="133.06"/>
	
		<line fill="none" stroke="#ED1F24" stroke-width="0.9921" stroke-miterlimit="10" x1="196.944" y1="168.241" x2="202.74" y2="156.088"/>
</g>
<g id="Cut">
	<path fill="none" stroke="#69BD45" stroke-width="0.9921" stroke-miterlimit="10" d="M441.712,104.866l-47.432,22.623l9.078,19.032
		l-7.02,3.349c-4.214-7.033-8.564-11.428-10.729-10.396c-2.764,1.318-0.906,10.978,4.148,21.575
		c5.055,10.597,11.393,18.12,14.155,16.802c2.161-1.03,1.485-7.179-1.327-14.877l7.02-3.349l9.078,19.033l47.43-22.622"/>
	<path fill="none" stroke="#69BD45" stroke-width="0.9921" stroke-miterlimit="10" d="M195.763,104.866l64.583,30.803l-9.08,19.035
		l-7.016-3.345c2.811-7.702,3.49-13.848,1.324-14.881c-2.762-1.315-9.098,6.209-14.152,16.806
		c-5.054,10.597-6.912,20.258-4.15,21.573c2.166,1.033,6.513-3.362,10.729-10.393l7.015,3.344l-9.08,19.036l-64.579-30.808"/>
	<path fill="none" stroke="#69BD45" stroke-width="0.9921" stroke-miterlimit="10" d="M547.087,8.504
		c15.655,0,28.347,12.691,28.347,28.347v198.425c0,15.655-12.689,28.348-28.347,28.348H36.851
		c-15.656,0-28.349-12.691-28.349-28.348V36.85c0-15.654,12.691-28.347,28.349-28.347L547.087,8.504L547.087,8.504z"/>
	<path fill="none" stroke="#69BD45" stroke-width="0.9921" stroke-miterlimit="10" d="M224.142,29.762h-31.295
		c-3.23,0-6.04,1.8-7.48,4.45c-0.02,0.02-0.03,0.05-0.03,0.069l-0.33,0.671c0,0,0,0,0,0.01l-66.77,139.99l-26.16,54.858
		c-0.03,0.04-0.05,0.08-0.06,0.12l-0.302,0.62v0.01c-0.43,1.011-0.67,2.131-0.67,3.302c0,4.698,3.812,8.5,8.512,8.5h67.278
		c4.48-0.23,8.062-3.951,8.062-8.5c0-4.69-3.812-8.5-8.5-8.5h-26.91c-2.35,0-4.25-1.9-4.25-4.25v-25.521c0-2.351,1.9-4.25,4.25-4.25
		h29.885"/>
	<path fill="none" stroke="#69BD45" stroke-width="0.9921" stroke-miterlimit="10" d="M468.102,191.343h29.885
		c2.352,0,4.25,1.899,4.25,4.25v25.521c0,2.35-1.898,4.25-4.25,4.25h-26.91c-4.688,0-8.5,3.81-8.5,8.5c0,4.549,3.58,8.27,8.062,8.5
		h67.279c4.697,0,8.51-3.802,8.51-8.5c0-1.171-0.24-2.291-0.67-3.302v-0.01l-0.302-0.62c-0.011-0.04-0.028-0.08-0.06-0.12
		l-26.16-54.858l-66.77-139.99c0-0.01,0-0.01,0-0.01l-0.33-0.671c0-0.021-0.013-0.051-0.031-0.069c-1.438-2.65-4.25-4.45-7.479-4.45
		h-31.296"/>
	<polyline fill="none" stroke="#69BD45" stroke-width="0.9921" stroke-miterlimit="10" points="170.789,191.343 318.736,191.343 
		466.684,191.343 	"/>
	<polyline fill="none" stroke="#69BD45" stroke-width="0.9921" stroke-miterlimit="10" points="411.913,29.762 318.736,29.762 
		225.56,29.762 	"/>
</g>
</svg>
